HIERARCHY
ROOT hips
{
  OFFSET 0 10.6860622 2.3727825e-15
  CHANNELS 6 Xposition Yposition Zposition Yrotation Xrotation Zrotation
  JOINT leftUpperLeg
  {
    OFFSET 0.6642549969 -0.9402397400000004 0
    CHANNELS 3 Yrotation Xrotation Zrotation
    JOINT leftLowerLeg
    {
      OFFSET 0 -3.997221335632195 0
      CHANNELS 3 Yrotation Xrotation Zrotation
      JOINT leftFoot
      {
        OFFSET -0.13777839790000004 -4.6145792000000005 -0.22186036399999998
        CHANNELS 3 Yrotation Xrotation Zrotation
        JOINT leftToes
        {
          OFFSET -0.03777410834999995 -0.9130806927000008 0.85230013
          CHANNELS 3 Yrotation Xrotation Zrotation
          End Site
          {
            OFFSET -0.03777410834999995 -0.9130806927000008 0.85230013
          }
        }
      }
    }
  }
  JOINT rightUpperLeg
  {
    OFFSET -0.6642778626 -0.9402397400000004 0
    CHANNELS 3 Yrotation Xrotation Zrotation
    JOINT rightLowerLeg
    {
      OFFSET 0 -3.997221452859387 0
      CHANNELS 3 Yrotation Xrotation Zrotation
      JOINT rightFoot
      {
        OFFSET 0.1377926176 -4.6145792000000005 -0.22185782299999995
        CHANNELS 3 Yrotation Xrotation Zrotation
        JOINT rightToes
        {
          OFFSET 0.037780746850000047 -0.9130806927000008 0.85230167
          CHANNELS 3 Yrotation Xrotation Zrotation
          End Site
          {
            OFFSET 0.037780746850000047 -0.9130806927000008 0.85230167
          }
        }
      }
    }
  }
  JOINT spine
  {
    OFFSET 0 0.13988381660000015 0
    CHANNELS 3 Yrotation Xrotation Zrotation
    JOINT chest
    {
      OFFSET 0 0.6191039003973773 0
      CHANNELS 3 Yrotation Xrotation Zrotation
      JOINT upperChest
      {
        OFFSET 0 0.9855186130586943 0
        CHANNELS 3 Yrotation Xrotation Zrotation
        JOINT leftShoulder
        {
          OFFSET 0.1807663869 1.5087829790000005 0
          CHANNELS 3 Yrotation Xrotation Zrotation
          JOINT leftUpperArm
          {
            OFFSET 0.5985063006419806 0 0
            CHANNELS 3 Yrotation Xrotation Zrotation
            JOINT leftLowerArm
            {
              OFFSET 2.2993332369501065 0 0
              CHANNELS 3 Yrotation Xrotation Zrotation
              JOINT leftHand
              {
                OFFSET 2.395047042602395 0 0
                CHANNELS 3 Yrotation Xrotation Zrotation
                JOINT leftIndexProximal
                {
                  OFFSET 0.5766295810000004 0.04556643899499946 0.17265095988184
                  CHANNELS 3 Yrotation Xrotation Zrotation
                  JOINT leftIndexIntermediate
                  {
                    OFFSET 0.2957229000000008 -0.019352197700001517 -0.007932640616999987
                    CHANNELS 3 Yrotation Xrotation Zrotation
                    JOINT leftIndexDistal
                    {
                      OFFSET 0.19008243099999922 -0.012484908149998475 -0.002786250786000012
                      CHANNELS 3 Yrotation Xrotation Zrotation
                      End Site
                      {
                        OFFSET 0.19008243099999922 -0.012484908149998475 -0.002786250786000012
                      }
                    }
                  }
                }
                JOINT leftMiddleProximal
                {
                  OFFSET 0.5834975091000001 0.0524350405149987 0.02204081888183999
                  CHANNELS 3 Yrotation Xrotation Zrotation
                  JOINT leftMiddleIntermediate
                  {
                    OFFSET 0.33880573540000003 -0.019871473270000717 -0.00000971183179999946
                    CHANNELS 3 Yrotation Xrotation Zrotation
                    JOINT leftMiddleDistal
                    {
                      OFFSET 0.20676022730000088 -0.012221336379999448 0.0001471936708000235
                      CHANNELS 3 Yrotation Xrotation Zrotation
                      End Site
                      {
                        OFFSET 0.20676022730000088 -0.012221336379999448 0.0001471936708000235
                      }
                    }
                  }
                }
                JOINT leftLittleProximal
                {
                  OFFSET 0.5344154683999995 -0.012880921405001189 -0.24414037221816004
                  CHANNELS 3 Yrotation Xrotation Zrotation
                  JOINT leftLittleIntermediate
                  {
                    OFFSET 0.21758961730000093 -0.011650919939999227 0.011893592810000034
                    CHANNELS 3 Yrotation Xrotation Zrotation
                    JOINT leftLittleDistal
                    {
                      OFFSET 0.1475273964999999 -0.008152365682999818 0.006001092492999946
                      CHANNELS 3 Yrotation Xrotation Zrotation
                      End Site
                      {
                        OFFSET 0.1475273964999999 -0.008152365682999818 0.006001092492999946
                      }
                    }
                  }
                }
                JOINT leftRingProximal
                {
                  OFFSET 0.5799399463000003 0.026911854694997794 -0.12150566991816003
                  CHANNELS 3 Yrotation Xrotation Zrotation
                  JOINT leftRingIntermediate
                  {
                    OFFSET 0.26167887460000006 -0.013480186499999602 0.010996293000000053
                    CHANNELS 3 Yrotation Xrotation Zrotation
                    JOINT leftRingDistal
                    {
                      OFFSET 0.17667108799999987 -0.008990287899999228 0.0055541023999999065
                      CHANNELS 3 Yrotation Xrotation Zrotation
                      End Site
                      {
                        OFFSET 0.17667108799999987 -0.008990287899999228 0.0055541023999999065
                      }
                    }
                  }
                }
                JOINT leftThumbProximal
                {
                  OFFSET 0.11018806699999972 -0.09448718900500053 0.17047963138184
                  CHANNELS 3 Yrotation Xrotation Zrotation
                  JOINT leftThumbIntermediate
                  {
                    OFFSET 0.31062601459999983 -0.08126270900000132 0.15443142000000007
                    CHANNELS 3 Yrotation Xrotation Zrotation
                    JOINT leftThumbDistal
                    {
                      OFFSET 0.21627175790000086 -0.08833193599999878 0.018771167799999988
                      CHANNELS 3 Yrotation Xrotation Zrotation
                      End Site
                      {
                        OFFSET 0.21627175790000086 -0.08833193599999878 0.018771167799999988
                      }
                    }
                  }
                }
              }
            }
          }
        }
        JOINT neck
        {
          OFFSET 0 1.5463305265074576 0
          CHANNELS 3 Yrotation Xrotation Zrotation
          JOINT head
          {
            OFFSET 0 0.8456443600000344 0
            CHANNELS 3 Yrotation Xrotation Zrotation
            JOINT leftEye
            {
              OFFSET 0.30408573140000006 0.5104519199999995 0.1276382305
              CHANNELS 3 Yrotation Xrotation Zrotation
              End Site
              {
                OFFSET 0.30408573140000006 0.5104519199999995 0.1276382305
              }
            }
            JOINT rightEye
            {
              OFFSET -0.30409491089999996 0.5104519199999995 0.1276379445
              CHANNELS 3 Yrotation Xrotation Zrotation
              End Site
              {
                OFFSET -0.30409491089999996 0.5104519199999995 0.1276379445
              }
            }
            JOINT jaw
            {
              OFFSET -3.155239131000001e-7 -0.11984121820000082 0.60178107
              CHANNELS 3 Yrotation Xrotation Zrotation
              End Site
              {
                OFFSET -3.155239131000001e-7 -0.11984121820000082 0.60178107
              }
            }
          }
        }
        JOINT rightShoulder
        {
          OFFSET -0.1807303465 1.5087829790000005 0
          CHANNELS 3 Yrotation Xrotation Zrotation
          JOINT rightUpperArm
          {
            OFFSET -0.5985063796536958 0 0
            CHANNELS 3 Yrotation Xrotation Zrotation
            JOINT rightLowerArm
            {
              OFFSET -2.2993322059002854 0 0
              CHANNELS 3 Yrotation Xrotation Zrotation
              JOINT rightHand
              {
                OFFSET -2.395045314457259 0 0
                CHANNELS 3 Yrotation Xrotation Zrotation
                JOINT rightIndexProximal
                {
                  OFFSET -0.5764487688300002 0.0441371204405987 0.17361932004999997
                  CHANNELS 3 Yrotation Xrotation Zrotation
                  JOINT rightIndexIntermediate
                  {
                    OFFSET -0.29573011380000047 -0.01934826376999843 -0.007698921482999974
                    CHANNELS 3 Yrotation Xrotation Zrotation
                    JOINT rightIndexDistal
                    {
                      OFFSET -0.19008373999999884 -0.012503266380000655 -0.0026365778999999897
                      CHANNELS 3 Yrotation Xrotation Zrotation
                      End Site
                      {
                        OFFSET -0.19008373999999884 -0.012503266380000655 -0.0026365778999999897
                      }
                    }
                  }
                }
                JOINT rightMiddleProximal
                {
                  OFFSET -0.5834852037300005 0.05211639405060153 0.02307162440000001
                  CHANNELS 3 Yrotation Xrotation Zrotation
                  JOINT rightMiddleIntermediate
                  {
                    OFFSET -0.33880114510000003 -0.019952774050000954 0.0002455003561999819
                    CHANNELS 3 Yrotation Xrotation Zrotation
                    JOINT rightMiddleDistal
                    {
                      OFFSET -0.20675694929999955 -0.012273788999999091 0.00030209124000002766
                      CHANNELS 3 Yrotation Xrotation Zrotation
                      End Site
                      {
                        OFFSET -0.20675694929999955 -0.012273788999999091 0.00030209124000002766
                      }
                    }
                  }
                }
                JOINT rightLittleProximal
                {
                  OFFSET -0.5346811737299992 -0.011214256288399227 -0.24363941305000003
                  CHANNELS 3 Yrotation Xrotation Zrotation
                  JOINT rightLittleIntermediate
                  {
                    OFFSET -0.21757715980000092 -0.011771559690000988 0.01201554387
                    CHANNELS 3 Yrotation Xrotation Zrotation
                    JOINT rightLittleDistal
                    {
                      OFFSET -0.1475201849000004 -0.00822055339600003 0.006082065407000015
                      CHANNELS 3 Yrotation Xrotation Zrotation
                      End Site
                      {
                        OFFSET -0.1475201849000004 -0.00822055339600003 0.006082065407000015
                      }
                    }
                  }
                }
                JOINT rightRingProximal
                {
                  OFFSET -0.5800810755299999 0.027657985680600072 -0.12066365025000003
                  CHANNELS 3 Yrotation Xrotation Zrotation
                  JOINT rightRingIntermediate
                  {
                    OFFSET -0.26166445029999974 -0.013623118409999302 0.011164098990000045
                    CHANNELS 3 Yrotation Xrotation Zrotation
                    JOINT rightRingDistal
                    {
                      OFFSET -0.17666387530000027 -0.009072900100000503 0.005668185599999959
                      CHANNELS 3 Yrotation Xrotation Zrotation
                      End Site
                      {
                        OFFSET -0.17666387530000027 -0.009072900100000503 0.005668185599999959
                      }
                    }
                  }
                }
                JOINT rightThumbProximal
                {
                  OFFSET -0.10997596379000074 -0.09577489355940072 0.16989765924999997
                  CHANNELS 3 Yrotation Xrotation Zrotation
                  JOINT rightThumbIntermediate
                  {
                    OFFSET -0.31036620999999986 -0.08229339117999834 0.15440884469999996
                    CHANNELS 3 Yrotation Xrotation Zrotation
                    JOINT rightThumbDistal
                    {
                      OFFSET -0.21631306399999906 -0.08825326400000111 0.018656797720000014
                      CHANNELS 3 Yrotation Xrotation Zrotation
                      End Site
                      {
                        OFFSET -0.21631306399999906 -0.08825326400000111 0.018656797720000014
                      }
                    }
                  }
                }
              }
            }
          }
        }
      }
    }
  }
}
MOTION
Frames: 8
Frame Time: 0.03333333333333333
0 11.682712981546562 0 0 0 0 0 0 -5.826343164929014 -0.3712483961610101 -3.6333298826370974 5.838118207697276 0 0 0 0 0 0 0 0 5.826343164929014 0.3712483961610101 -3.6333298826370974 -5.838118207697276 0 0 0 0 0 0 0 -4.610651315171937 0 0 3.0831277533083026 0 0 0 0 0 1.5275236235667615 0 0 0 0 0 0 0 0 0 0 0 0 0 0 0 0 0 0 0 0 0 0 0 0 0 0 0 0 0 0 0 0 0 0 0 0 0 0 0 0 0 0 0 0 0 0 0 0 0 0 0 0 0 0 0 0 1.5275236235667615 0 0 0 0 0 0 0 0 0 0 0 0 0 0 1.5275236235667615 0 0 0 0 0 0 0 0 0 0 0 0 0 0 0 0 0 0 0 0 0 0 0 0 0 0 0 0 0 0 0 0 0 0 0 0 0 0 0 0 0 0 0 0 0 0 0 0 0 0 0 0 0 0 0
-8.0529326932475 -6.851727247873145 3.2206911521366424 89.99798717602386 7.002476744799782 -0.0025967171358659397 -13.698422317955396 -29.592624536980793 9.211186928139456 163.8705638495629 69.83137396788439 162.87683257492182 0.000002559263633402947 66.9996088288033 0.000001355807921723583 0 0 0 5.744595723437273 -31.003071715985808 -7.17935458429394 -160.9099337586091 72.67209053982153 -160.072368620743 0.000002559263633402947 66.9996088288033 0.000001355807921723583 0 0 0 28.075388300237123 51.74944408477985 24.136942674150603 -26.843226360816445 20.67174087977323 -10.8455139417666 0 0 0 0 -8.474666291380448 0 -80.85558041506175 13.599724103490644 17.885557804375793 -11.003080002321482 0 0 0 0 54.996658127853095 0 0 0 0 0 0 0 0 0 0 0 0 0 0 0 0 0 0 0 0 0 0 0 0 0 0 0 0 0 0 0 0 0 0 0 0 0 0 0 0 0 0 0 0 0 0 -25.47276186615584 0 0 -12.00128013587278 0 0 0 0 0 0 0 0 0 0 0 -8.474666291380448 0 79.63397059117973 -30.813154020788787 -10.366239961342988 31.999022272214727 19.9997898634148 -0.0006693669477784595 -22.556199991294736 20.322009814453647 -50.09589658720882 0 0 0 0 0 0 0 0 0 0 0 0 0 0 0 0 0 0 0 0 0 0 0 0 0 0 0 0 0 0 0 0 0 0 0 0 0 0 0 0 0 0 0 0 0
-8.0529326932475 -6.851727247873145 3.2206911521366424 89.99798717602386 7.002476744799782 -0.0025967171358659397 -13.698422317955396 -29.592624536980793 9.211186928139456 163.87056109786658 69.83137396788439 162.87682965861828 0.000002559263633402947 66.9996088288033 0.000001355807921723583 0 0 0 5.744595723437273 -31.003071715985808 -7.17935458429394 -160.9099281335037 72.67209053982153 -160.0723647126811 0.000002559263633402947 66.9996088288033 0.000001355807921723583 0 0 0 28.21227510888309 51.95036146907456 24.310971722045885 -26.843226360816445 20.67174087977323 -10.8455139417666 0 0 0 -0.009365593004039656 -8.472193234744049 -0.007149034948892966 -80.57550989612197 13.896568953599111 18.50982576752478 -11.003080002321482 0 0 -0.21973905962357587 -0.2021018613156723 54.786796913477836 0 0 0 0 0 0 0 0 0 0 0 0 0 0 0 0 0 0 0 0 0 0 0 0 0 0 0 0 0 0 0 0 0 0 0 0 0 0 0 0 0 0 0 0 0 0 -25.47276186615584 0 0 -12.00128013587278 0 0 0 0 0 0 0 0 0 0 0 -8.474666291380448 0 79.54577222087653 -30.320372850924407 -10.985346061457431 31.999018832011696 19.438919376123405 -0.0007136561950109694 -22.507312422052436 20.376677056786644 -49.955336136858435 0 0 0 0 0 0 0 0 0 0 0 0 0 0 0 0 0 0 0 0 0 0 0 0 0 0 0 0 0 0 0 0 0 0 0 0 0 0 0 0 0 0 0 0 0
-8.0529326932475 -6.851727247873145 3.2206911521366424 89.99798717602386 7.002476744799782 -0.0025967171358659397 -13.698422317955396 -29.592624536980793 9.211186928139456 163.8705583461693 69.83138387290589 162.87682674231377 0.000002559263633402947 66.9996088288033 0.000001355807921723583 0 0 0 5.744595723437273 -31.003071715985808 -7.17935458429394 -160.90992302897752 72.67209053982153 -160.0723608046177 0.000002559263633402947 66.9996088288033 0.000001355807921723583 0 0 0 28.35077476590831 52.1510198203373 24.48656295207706 -26.843226360816445 20.67174087977323 -10.8455139417666 0 0 0 -0.018731436758262894 -8.469721057195374 -0.014298433539213352 -80.29175789334298 14.190427185027337 19.13638807801017 -11.003080002321482 0 0 -0.43874047017927054 -0.40500573618030566 54.577710663746274 0 0 0 0 0 0 0 0 0 0 0 0 0 0 0 0 0 0 0 0 0 0 0 0 0 0 0 0 0 0 0 0 0 0 0 0 0 0 0 0 0 0 0 0 0 0 -25.47276186615584 0 0 -12.00128013587278 0 0 0 0 0 0 0 0 0 0 0 -8.474666291380448 0 79.45188089420853 -29.82844203472102 -11.602251449641132 31.999017103140034 18.87804720946982 -0.0007577603915567519 -22.458264259647972 20.43123248289179 -49.81467883241979 0 0 0 0 0 0 0 0 0 0 0 0 0 0 0 0 0 0 0 0 0 0 0 0 0 0 0 0 0 0 0 0 0 0 0 0 0 0 0 0 0 0 0 0 0
-8.0529326932475 -6.851727247873145 3.2206911521366424 89.99799511324967 7.00247803508464 -0.0025967421267343374 -13.698423271874624 -29.592624536980793 9.211186928139456 163.87057054234293 69.83136406286756 162.87683986567643 0.000002559263633402947 66.9996088288033 0.000001355807921723583 0 0 0 5.744595723437273 -31.003071715985808 -7.17935458429394 -160.90995011332723 72.67206760741905 -160.07238620700338 0.000002559263633402947 66.9996088288033 0.000001355807921723583 0 0 0 28.632841314241723 52.55174619782938 24.84272285182901 -26.843226360816445 20.67174087977323 -10.8455139417666 0 0 0 -0.037464841083098326 -8.464775886568509 -0.0285995311956304 -79.71033541999599 14.771864862292146 20.402781466518206 -11.003080002321482 0 0 -0.8751307308574604 -0.8137544308851505 54.16128320140437 0 0 0 0 0 0 0 0 0 0 0 0 0 0 0 0 0 0 0 0 0 0 0 0 0 0 0 0 0 0 0 0 0 0 0 0 0 0 0 0 0 0 0 0 0 0 -25.47276186615584 0 0 -12.001281008724384 0 0 0 0 0 0 0 0 0 0 0 -8.474666291380448 0 79.24609168303127 -28.84173724376489 -12.836976048317474 31.999012369589046 17.752642048289257 -0.0008462993064931985 -22.359667205401376 20.540027666568 -49.53299150888475 0 0 0 0 0 0 0 0 0 0 0 0 0 0 0 0 0 0 0 0 0 0 0 0 0 0 0 0 0 0 0 0 0 0 0 0 0 0 0 0 0 0 0 0 0
-8.0529326932475 -6.851727247873145 3.2206911521366424 89.99799511324967 7.00247803508464 -0.0025967421267343374 -13.698423271874624 -29.592624536980793 9.211186928139456 163.8705677906486 69.83137396788439 162.87683549122437 0.000002559263633402947 66.9996088288033 0.000001355807921723583 0 0 0 5.744595723437273 -31.003071715985808 -7.17935458429394 -160.90994261319784 72.67207907361662 -160.0723764368624 0.000002559263633402947 66.9996088288033 0.000001355807921723583 0 0 0 28.776460166779135 52.75180812629711 25.023343958805746 -26.843226360816445 20.67174087977323 -10.8455139417666 0 0 0 -0.046832080891952885 -8.462306346175911 -0.03575020608237047 -79.41268692588996 15.059214712072993 21.042517355261253 -11.003080002321482 0 0 -1.092503721866541 -1.0195754423704748 53.953952642202935 0 0 0 0 0 0 0 0 0 0 0 0 0 0 0 0 0 0 0 0 0 0 0 0 0 0 0 0 0 0 0 0 0 0 0 0 0 0 0 0 0 0 0 0 0 0 -25.47276186615584 0 0 -12.00128013587278 0 0 0 0 0 0 0 0 0 0 0 -8.474666291380448 0 79.13429665296198 -28.347284756996 -13.45475047770109 31.999009735373065 17.188208939246618 -0.0008897208865612783 -22.31011950354783 20.59426182582776 -49.39197477896675 0 0 0 0 0 0 0 0 0 0 0 0 0 0 0 0 0 0 0 0 0 0 0 0 0 0 0 0 0 0 0 0 0 0 0 0 0 0 0 0 0 0 0 0 0
-8.0529326932475 -6.851727247873145 3.2206911521366424 89.99799523610395 7.00247803508464 -0.0025957347217284133 -13.698423271874624 -29.592624536980793 9.21118886651222 163.8705638495629 69.83137396788439 162.87683257492182 0.000002559263633402947 66.9996088288033 0.000001355807921723583 0 0 0 5.744595723437273 -31.003071715985808 -7.17935458429394 -160.9099337586091 72.67209053982153 -160.072368620743 0.000002559263633402947 66.9996088288033 0.000001355807921723583 0 0 0 28.921790697997622 52.951591328969286 25.205628833621805 -26.843226360816445 20.67174087977323 -10.8455139417666 0 0 0 -0.056199568306445284 -8.459838547950474 -0.04290124455085751 -79.11132652463704 15.34333003586566 21.68466004580132 -11.003080002321482 0 0 -1.3091456705600188 -1.2261799999058443 53.74738988711336 0 0 0 0 0 0 0 0 0 0 0 0 0 0 0 0 0 0 0 0 0 0 0 0 0 0 0 0 0 0 0 0 0 0 0 0 0 0 0 0 0 0 0 0 0 0 -25.47276186615584 0 0 -12.00128013587278 0 0 0 0 0 0 0 0 0 0 0 -8.474666291380448 0 79.01699075406239 -27.853918663231937 -14.07077561184058 31.9990076339467 16.623774542943632 -0.0009329955245836871 -22.26041195729564 20.64838389883405 -49.25085934267216 0 0 0 0 0 0 0 0 0 0 0 0 0 0 0 0 0 0 0 0 0 0 0 0 0 0 0 0 0 0 0 0 0 0 0 0 0 0 0 0 0 0 0 0 0
-8.0529326932475 -6.851727247873145 3.2206911521366424 89.99797218612298 7.002476744799782 -0.0025975521248806466 -13.698422317955396 -29.592620609591783 9.21118629946692 163.8705638495629 69.83137396788439 162.87683257492182 0.000002559263633402947 66.9996088288033 0.000001355807921723583 0 0 0 5.744595723437273 -31.003071715985808 -7.17935458429394 -160.9099337586091 72.67209053982153 -160.072368620743 0.000002559263633402947 66.9996088288033 0.000001355807921723583 0 0 0 29.217806058481703 53.35049314396557 25.57545995045828 -26.843226360816445 20.67174087977323 -10.8455139417666 0 0 0 -0.07493525924361137 -8.454902998921838 -0.057205601597384 -78.49474986842468 15.904096107147828 22.98200736589226 -11.003080002321482 0 0 -1.7407621167369978 -1.6422166189386183 53.33608755407609 0 0 0 0 0 0 0 0 0 0 0 0 0 0 0 0 0 0 0 0 0 0 0 0 0 0 0 0 0 0 0 0 0 0 0 0 0 0 0 0 0 0 0 0 0 0 -25.47276186615584 0 0 -12.001281008724384 0 0 0 0 0 0 0 0 0 0 0 -8.474666291380448 0 78.76478824973871 -26.865854716607828 -15.304057258634616 31.99901486794714 15.491652450773898 -0.0010200593897651265 -22.16049829221246 20.756300630862736 -48.968273944371035 0 0 0 0 0 0 0 0 0 0 0 0 0 0 0 0 0 0 0 0 0 0 0 0 0 0 0 0 0 0 0 0 0 0 0 0 0 0 0 0 0 0 0 0 0
